<mxfile host="app.diagrams.net" modified="2024-03-08T22:26:45.367Z" agent="Mozilla/5.0 (Windows NT 10.0; Win64; x64) AppleWebKit/537.36 (KHTML, like Gecko) Chrome/122.0.0.0 Safari/537.36" etag="1U9yfqX_ADbdbt4XlK-m" version="24.0.2" type="device" pages="5">
  <diagram name="Home" id="03018318-947c-dd8e-b7a3-06fadd420f32">
    <mxGraphModel dx="1647" dy="839" grid="1" gridSize="10" guides="1" tooltips="1" connect="1" arrows="1" fold="1" page="1" pageScale="1" pageWidth="1100" pageHeight="850" background="none" math="0" shadow="0">
      <root>
        <mxCell id="0" />
        <mxCell id="1" parent="0" />
        <mxCell id="677b7b8949515195-1" value="" style="whiteSpace=wrap;html=1;rounded=0;shadow=0;labelBackgroundColor=none;strokeColor=#000000;strokeWidth=1;fillColor=none;fontFamily=Verdana;fontSize=12;fontColor=#000000;align=center;comic=1;" parent="1" vertex="1">
          <mxGeometry x="20" y="20" width="1060" height="810" as="geometry" />
        </mxCell>
        <mxCell id="677b7b8949515195-9" value="" style="line;strokeWidth=1;html=1;rounded=0;shadow=0;labelBackgroundColor=none;fillColor=none;fontFamily=Verdana;fontSize=14;fontColor=#000000;align=center;comic=1;" parent="1" vertex="1">
          <mxGeometry x="20" y="140" width="1060" height="10" as="geometry" />
        </mxCell>
        <mxCell id="677b7b8949515195-10" value="" style="whiteSpace=wrap;html=1;rounded=0;shadow=0;labelBackgroundColor=none;strokeWidth=1;fillColor=none;fontFamily=Verdana;fontSize=12;align=center;comic=1;" parent="1" vertex="1">
          <mxGeometry x="210" y="160" width="760" height="50" as="geometry" />
        </mxCell>
        <mxCell id="677b7b8949515195-11" value="&lt;b&gt;Home&lt;/b&gt;" style="text;html=1;points=[];align=left;verticalAlign=top;spacingTop=-4;fontSize=14;fontFamily=Verdana" parent="1" vertex="1">
          <mxGeometry x="220" y="170" width="50" height="20" as="geometry" />
        </mxCell>
        <mxCell id="677b7b8949515195-12" value="Writing" style="text;html=1;points=[];align=left;verticalAlign=top;spacingTop=-4;fontSize=14;fontFamily=Verdana" parent="1" vertex="1">
          <mxGeometry x="540" y="170" width="60" height="20" as="geometry" />
        </mxCell>
        <mxCell id="677b7b8949515195-13" value="Martial Arts&lt;div&gt;&lt;br&gt;&lt;/div&gt;" style="text;html=1;points=[];align=left;verticalAlign=top;spacingTop=-4;fontSize=14;fontFamily=Verdana" parent="1" vertex="1">
          <mxGeometry x="840" y="170" width="90" height="20" as="geometry" />
        </mxCell>
        <mxCell id="677b7b8949515195-15" value="&lt;div style=&quot;text-align: justify; font-size: 14px;&quot;&gt;&lt;font style=&quot;font-size: 14px;&quot;&gt;Lorem ipsum dolor sit amet, consectetur adipisicing elit, sed do eiusmod tempor incididunt ut labore et dolore magna aliqua. Ut enim ad minim veniam, quis nostrud exercitation ullamco laboris nisi ut aliquip ex ea commodo consequat. Duis aute irure dolor in reprehenderit in voluptate velit esse cillum dolore eu fugiat nulla pariatur. Excepteur sint occaecat cupidatat non proident, sunt in culpa qui officia deserunt mollit anim id est laborum.&lt;/font&gt;&lt;/div&gt;&lt;div style=&quot;text-align: justify; font-size: 14px;&quot;&gt;&lt;font style=&quot;font-size: 14px;&quot;&gt;Sed ut perspiciatis unde omnis iste natus error sit voluptatem accusantium doloremque laudantium, totam rem aperiam, eaque ipsa quae ab illo inventore veritatis et quasi architecto beatae vitae dicta sunt explicabo. Nemo enim ipsam voluptatem quia voluptas sit aspernatur aut odit aut fugit, sed quia consequuntur magni dolores eos qui ratione voluptatem sequi nesciunt.&amp;nbsp;&lt;/font&gt;&lt;/div&gt;" style="whiteSpace=wrap;html=1;rounded=0;shadow=0;labelBackgroundColor=none;strokeWidth=1;fillColor=none;fontFamily=Verdana;fontSize=12;align=center;verticalAlign=top;spacing=10;comic=1;" parent="1" vertex="1">
          <mxGeometry x="600" y="280" width="370" height="400" as="geometry" />
        </mxCell>
        <mxCell id="677b7b8949515195-16" value="" style="verticalLabelPosition=bottom;shadow=0;dashed=0;align=center;html=1;verticalAlign=top;strokeWidth=1;shape=mxgraph.mockup.graphics.simpleIcon;strokeColor=#999999;rounded=0;labelBackgroundColor=none;fontFamily=Verdana;fontSize=14;fontColor=#000000;comic=1;" parent="1" vertex="1">
          <mxGeometry x="220" y="280" width="290" height="400" as="geometry" />
        </mxCell>
        <mxCell id="pyFr2UeMgyqTiAOaiK7u-1" value="&lt;font style=&quot;font-size: 72px;&quot;&gt;Brian Waldschmidt&lt;/font&gt;" style="text;strokeColor=none;align=center;fillColor=none;html=1;verticalAlign=middle;whiteSpace=wrap;rounded=0;" vertex="1" parent="1">
          <mxGeometry x="230" y="20" width="710" height="120" as="geometry" />
        </mxCell>
        <mxCell id="pyFr2UeMgyqTiAOaiK7u-2" value="&lt;font style=&quot;font-size: 14px;&quot; face=&quot;Verdana&quot;&gt;Comic Book Collecting&lt;/font&gt;" style="text;strokeColor=none;align=center;fillColor=none;html=1;verticalAlign=middle;whiteSpace=wrap;rounded=0;" vertex="1" parent="1">
          <mxGeometry x="360" y="160" width="90" height="50" as="geometry" />
        </mxCell>
        <mxCell id="pyFr2UeMgyqTiAOaiK7u-3" value="&lt;font style=&quot;font-size: 14px;&quot; face=&quot;Verdana&quot;&gt;Gaming&lt;/font&gt;" style="text;strokeColor=none;align=center;fillColor=none;html=1;verticalAlign=middle;whiteSpace=wrap;rounded=0;" vertex="1" parent="1">
          <mxGeometry x="690" y="165" width="70" height="30" as="geometry" />
        </mxCell>
        <mxCell id="pyFr2UeMgyqTiAOaiK7u-4" value="&lt;font style=&quot;font-size: 14px;&quot;&gt;Brian Waldschmidt&lt;/font&gt;" style="text;strokeColor=none;align=center;fillColor=none;html=1;verticalAlign=middle;whiteSpace=wrap;rounded=0;" vertex="1" parent="1">
          <mxGeometry x="290" y="690" width="150" height="40" as="geometry" />
        </mxCell>
        <mxCell id="pyFr2UeMgyqTiAOaiK7u-5" value="&lt;font style=&quot;font-size: 24px;&quot;&gt;Home&lt;/font&gt;" style="text;strokeColor=none;align=center;fillColor=none;html=1;verticalAlign=middle;whiteSpace=wrap;rounded=0;" vertex="1" parent="1">
          <mxGeometry x="530" y="220" width="80" height="50" as="geometry" />
        </mxCell>
      </root>
    </mxGraphModel>
  </diagram>
  <diagram name="Comic Book Collecting" id="ad4dRYyMAiufYhopI2sX">
    <mxGraphModel dx="1647" dy="839" grid="1" gridSize="10" guides="1" tooltips="1" connect="1" arrows="1" fold="1" page="1" pageScale="1" pageWidth="1100" pageHeight="850" background="none" math="0" shadow="0">
      <root>
        <mxCell id="40k8S1abNJBGJsDosZKE-0" />
        <mxCell id="40k8S1abNJBGJsDosZKE-1" parent="40k8S1abNJBGJsDosZKE-0" />
        <mxCell id="40k8S1abNJBGJsDosZKE-2" value="" style="whiteSpace=wrap;html=1;rounded=0;shadow=0;labelBackgroundColor=none;strokeColor=#000000;strokeWidth=1;fillColor=none;fontFamily=Verdana;fontSize=12;fontColor=#000000;align=center;comic=1;" vertex="1" parent="40k8S1abNJBGJsDosZKE-1">
          <mxGeometry x="20" y="20" width="1060" height="830" as="geometry" />
        </mxCell>
        <mxCell id="40k8S1abNJBGJsDosZKE-3" value="" style="line;strokeWidth=1;html=1;rounded=0;shadow=0;labelBackgroundColor=none;fillColor=none;fontFamily=Verdana;fontSize=14;fontColor=#000000;align=center;comic=1;" vertex="1" parent="40k8S1abNJBGJsDosZKE-1">
          <mxGeometry x="20" y="140" width="1060" height="10" as="geometry" />
        </mxCell>
        <mxCell id="40k8S1abNJBGJsDosZKE-4" value="" style="whiteSpace=wrap;html=1;rounded=0;shadow=0;labelBackgroundColor=none;strokeWidth=1;fillColor=none;fontFamily=Verdana;fontSize=12;align=center;comic=1;" vertex="1" parent="40k8S1abNJBGJsDosZKE-1">
          <mxGeometry x="210" y="160" width="760" height="50" as="geometry" />
        </mxCell>
        <mxCell id="40k8S1abNJBGJsDosZKE-5" value="Home" style="text;html=1;points=[];align=left;verticalAlign=top;spacingTop=-4;fontSize=14;fontFamily=Verdana" vertex="1" parent="40k8S1abNJBGJsDosZKE-1">
          <mxGeometry x="220" y="170" width="50" height="20" as="geometry" />
        </mxCell>
        <mxCell id="40k8S1abNJBGJsDosZKE-6" value="Writing" style="text;html=1;points=[];align=left;verticalAlign=top;spacingTop=-4;fontSize=14;fontFamily=Verdana" vertex="1" parent="40k8S1abNJBGJsDosZKE-1">
          <mxGeometry x="540" y="170" width="60" height="20" as="geometry" />
        </mxCell>
        <mxCell id="40k8S1abNJBGJsDosZKE-7" value="Martial Arts&lt;div&gt;&lt;br&gt;&lt;/div&gt;" style="text;html=1;points=[];align=left;verticalAlign=top;spacingTop=-4;fontSize=14;fontFamily=Verdana" vertex="1" parent="40k8S1abNJBGJsDosZKE-1">
          <mxGeometry x="840" y="170" width="90" height="20" as="geometry" />
        </mxCell>
        <mxCell id="40k8S1abNJBGJsDosZKE-10" value="&lt;font style=&quot;font-size: 72px;&quot;&gt;Brian Waldschmidt&lt;/font&gt;" style="text;strokeColor=none;align=center;fillColor=none;html=1;verticalAlign=middle;whiteSpace=wrap;rounded=0;" vertex="1" parent="40k8S1abNJBGJsDosZKE-1">
          <mxGeometry x="230" y="20" width="710" height="120" as="geometry" />
        </mxCell>
        <mxCell id="40k8S1abNJBGJsDosZKE-11" value="&lt;font style=&quot;font-size: 14px;&quot; face=&quot;Verdana&quot;&gt;&lt;b&gt;Comic Book Collecting&lt;/b&gt;&lt;/font&gt;" style="text;strokeColor=none;align=center;fillColor=none;html=1;verticalAlign=middle;whiteSpace=wrap;rounded=0;" vertex="1" parent="40k8S1abNJBGJsDosZKE-1">
          <mxGeometry x="350" y="160" width="120" height="50" as="geometry" />
        </mxCell>
        <mxCell id="40k8S1abNJBGJsDosZKE-12" value="&lt;font style=&quot;font-size: 14px;&quot; face=&quot;Verdana&quot;&gt;Gaming&lt;/font&gt;" style="text;strokeColor=none;align=center;fillColor=none;html=1;verticalAlign=middle;whiteSpace=wrap;rounded=0;" vertex="1" parent="40k8S1abNJBGJsDosZKE-1">
          <mxGeometry x="690" y="165" width="70" height="30" as="geometry" />
        </mxCell>
        <mxCell id="40k8S1abNJBGJsDosZKE-14" value="&lt;font style=&quot;font-size: 24px;&quot;&gt;Comic Book Collecting&lt;/font&gt;" style="text;strokeColor=none;align=center;fillColor=none;html=1;verticalAlign=middle;whiteSpace=wrap;rounded=0;" vertex="1" parent="40k8S1abNJBGJsDosZKE-1">
          <mxGeometry x="450" y="220" width="280" height="50" as="geometry" />
        </mxCell>
        <mxCell id="MWcLWMp6DiiHKgKiS6Qi-0" value="" style="verticalLabelPosition=bottom;shadow=0;dashed=0;align=center;html=1;verticalAlign=top;strokeWidth=1;shape=mxgraph.mockup.graphics.simpleIcon;strokeColor=#999999;rounded=0;labelBackgroundColor=none;fontFamily=Verdana;fontSize=14;fontColor=#000000;comic=1;" vertex="1" parent="40k8S1abNJBGJsDosZKE-1">
          <mxGeometry x="220" y="650" width="335" height="185" as="geometry" />
        </mxCell>
        <mxCell id="MWcLWMp6DiiHKgKiS6Qi-1" value="" style="verticalLabelPosition=bottom;shadow=0;dashed=0;align=center;html=1;verticalAlign=top;strokeWidth=1;shape=mxgraph.mockup.graphics.simpleIcon;strokeColor=#999999;rounded=0;labelBackgroundColor=none;fontFamily=Verdana;fontSize=14;fontColor=#000000;comic=1;" vertex="1" parent="40k8S1abNJBGJsDosZKE-1">
          <mxGeometry x="635" y="460" width="335" height="185" as="geometry" />
        </mxCell>
        <mxCell id="MWcLWMp6DiiHKgKiS6Qi-2" value="" style="verticalLabelPosition=bottom;shadow=0;dashed=0;align=center;html=1;verticalAlign=top;strokeWidth=1;shape=mxgraph.mockup.graphics.simpleIcon;strokeColor=#999999;rounded=0;labelBackgroundColor=none;fontFamily=Verdana;fontSize=14;fontColor=#000000;comic=1;" vertex="1" parent="40k8S1abNJBGJsDosZKE-1">
          <mxGeometry x="220" y="270" width="335" height="185" as="geometry" />
        </mxCell>
        <mxCell id="izlfNfdJG_3G9Pno8Wa8-2" value="Lorem ipsum dolor sit amet, consectetur adipisicing elit, sed do eiusmod tempor incididunt ut labore et dolore magna aliqua. Ut enim ad minim veniam, quis nostrud exercitation ullamco laboris nisi ut aliquip ex ea commodo consequat. Duis aute irure dolor in reprehenderit in voluptate velit esse cillum dolore eu fugiat nulla pariatur. Excepteur sint occaecat cupidatat non proident, sunt in culpa qui officia deserunt mollit anim id est laborum.&lt;br&gt;Sed ut perspiciatis unde omnis iste natus error sit voluptatem accusantium doloremque laudantium, totam rem aperiam, eaque ipsa quae ab illo inventore veritatis et quasi architecto beatae vitae dicta sunt explicabo. Nemo enim ipsam voluptatem quia voluptas sit aspernatur aut odit aut fugit, sed quia consequuntur magni dolores eos qui ratione voluptatem sequi&amp;nbsp;" style="text;spacingTop=-5;whiteSpace=wrap;html=1;align=left;fontSize=12;fontFamily=Helvetica;fillColor=none;strokeColor=none;" vertex="1" parent="40k8S1abNJBGJsDosZKE-1">
          <mxGeometry x="582.5" y="270" width="405" height="175" as="geometry" />
        </mxCell>
        <mxCell id="vDQtRkdWx00R-bYCuXyh-0" value="Lorem ipsum dolor sit amet, consectetur adipisicing elit, sed do eiusmod tempor incididunt ut labore et dolore magna aliqua. Ut enim ad minim veniam, quis nostrud exercitation ullamco laboris nisi ut aliquip ex ea commodo consequat. Duis aute irure dolor in reprehenderit in voluptate velit esse cillum dolore eu fugiat nulla pariatur. Excepteur sint occaecat cupidatat non proident, sunt in culpa qui officia deserunt mollit anim id est laborum.&lt;br&gt;Sed ut perspiciatis unde omnis iste natus error sit voluptatem accusantium doloremque laudantium, totam rem aperiam, eaque ipsa quae ab illo inventore veritatis et quasi architecto beatae vitae dicta sunt explicabo. Nemo enim ipsam voluptatem quia voluptas sit aspernatur aut odit aut fugit, sed quia consequuntur magni dolores eos qui ratione voluptatem sequi&amp;nbsp;" style="text;spacingTop=-5;whiteSpace=wrap;html=1;align=left;fontSize=12;fontFamily=Helvetica;fillColor=none;strokeColor=none;" vertex="1" parent="40k8S1abNJBGJsDosZKE-1">
          <mxGeometry x="582.5" y="655" width="405" height="175" as="geometry" />
        </mxCell>
        <mxCell id="vDQtRkdWx00R-bYCuXyh-1" value="Lorem ipsum dolor sit amet, consectetur adipisicing elit, sed do eiusmod tempor incididunt ut labore et dolore magna aliqua. Ut enim ad minim veniam, quis nostrud exercitation ullamco laboris nisi ut aliquip ex ea commodo consequat. Duis aute irure dolor in reprehenderit in voluptate velit esse cillum dolore eu fugiat nulla pariatur. Excepteur sint occaecat cupidatat non proident, sunt in culpa qui officia deserunt mollit anim id est laborum.&lt;br&gt;Sed ut perspiciatis unde omnis iste natus error sit voluptatem accusantium doloremque laudantium, totam rem aperiam, eaque ipsa quae ab illo inventore veritatis et quasi architecto beatae vitae dicta sunt explicabo. Nemo enim ipsam voluptatem quia voluptas sit aspernatur aut odit aut fugit, sed quia consequuntur magni dolores eos qui ratione voluptatem sequi&amp;nbsp;" style="text;spacingTop=-5;whiteSpace=wrap;html=1;align=left;fontSize=12;fontFamily=Helvetica;fillColor=none;strokeColor=none;" vertex="1" parent="40k8S1abNJBGJsDosZKE-1">
          <mxGeometry x="220" y="460" width="405" height="175" as="geometry" />
        </mxCell>
      </root>
    </mxGraphModel>
  </diagram>
  <diagram name="Writing" id="x83EzTUUtWckwJGLOEuo">
    <mxGraphModel dx="1647" dy="839" grid="1" gridSize="10" guides="1" tooltips="1" connect="1" arrows="1" fold="1" page="1" pageScale="1" pageWidth="1100" pageHeight="850" background="none" math="0" shadow="0">
      <root>
        <mxCell id="Zy4aOvu0js69eLm8PPWO-0" />
        <mxCell id="Zy4aOvu0js69eLm8PPWO-1" parent="Zy4aOvu0js69eLm8PPWO-0" />
        <mxCell id="Zy4aOvu0js69eLm8PPWO-2" value="" style="whiteSpace=wrap;html=1;rounded=0;shadow=0;labelBackgroundColor=none;strokeColor=#000000;strokeWidth=1;fillColor=none;fontFamily=Verdana;fontSize=12;fontColor=#000000;align=center;comic=1;" vertex="1" parent="Zy4aOvu0js69eLm8PPWO-1">
          <mxGeometry x="20" y="20" width="1060" height="760" as="geometry" />
        </mxCell>
        <mxCell id="Zy4aOvu0js69eLm8PPWO-3" value="" style="line;strokeWidth=1;html=1;rounded=0;shadow=0;labelBackgroundColor=none;fillColor=none;fontFamily=Verdana;fontSize=14;fontColor=#000000;align=center;comic=1;" vertex="1" parent="Zy4aOvu0js69eLm8PPWO-1">
          <mxGeometry x="20" y="140" width="1060" height="10" as="geometry" />
        </mxCell>
        <mxCell id="Zy4aOvu0js69eLm8PPWO-4" value="" style="whiteSpace=wrap;html=1;rounded=0;shadow=0;labelBackgroundColor=none;strokeWidth=1;fillColor=none;fontFamily=Verdana;fontSize=12;align=center;comic=1;" vertex="1" parent="Zy4aOvu0js69eLm8PPWO-1">
          <mxGeometry x="210" y="160" width="760" height="50" as="geometry" />
        </mxCell>
        <mxCell id="Zy4aOvu0js69eLm8PPWO-5" value="Home" style="text;html=1;points=[];align=left;verticalAlign=top;spacingTop=-4;fontSize=14;fontFamily=Verdana" vertex="1" parent="Zy4aOvu0js69eLm8PPWO-1">
          <mxGeometry x="220" y="170" width="50" height="20" as="geometry" />
        </mxCell>
        <mxCell id="Zy4aOvu0js69eLm8PPWO-6" value="&lt;b&gt;Writing&lt;/b&gt;" style="text;html=1;points=[];align=left;verticalAlign=top;spacingTop=-4;fontSize=14;fontFamily=Verdana" vertex="1" parent="Zy4aOvu0js69eLm8PPWO-1">
          <mxGeometry x="540" y="170" width="60" height="20" as="geometry" />
        </mxCell>
        <mxCell id="Zy4aOvu0js69eLm8PPWO-7" value="Martial Arts&lt;div&gt;&lt;br&gt;&lt;/div&gt;" style="text;html=1;points=[];align=left;verticalAlign=top;spacingTop=-4;fontSize=14;fontFamily=Verdana" vertex="1" parent="Zy4aOvu0js69eLm8PPWO-1">
          <mxGeometry x="840" y="170" width="90" height="20" as="geometry" />
        </mxCell>
        <mxCell id="Zy4aOvu0js69eLm8PPWO-9" value="" style="verticalLabelPosition=bottom;shadow=0;dashed=0;align=center;html=1;verticalAlign=top;strokeWidth=1;shape=mxgraph.mockup.graphics.simpleIcon;strokeColor=#999999;rounded=0;labelBackgroundColor=none;fontFamily=Verdana;fontSize=14;fontColor=#000000;comic=1;" vertex="1" parent="Zy4aOvu0js69eLm8PPWO-1">
          <mxGeometry x="30" y="280" width="330" height="220" as="geometry" />
        </mxCell>
        <mxCell id="Zy4aOvu0js69eLm8PPWO-10" value="&lt;font style=&quot;font-size: 72px;&quot;&gt;Brian Waldschmidt&lt;/font&gt;" style="text;strokeColor=none;align=center;fillColor=none;html=1;verticalAlign=middle;whiteSpace=wrap;rounded=0;" vertex="1" parent="Zy4aOvu0js69eLm8PPWO-1">
          <mxGeometry x="230" y="20" width="710" height="120" as="geometry" />
        </mxCell>
        <mxCell id="Zy4aOvu0js69eLm8PPWO-11" value="&lt;font style=&quot;font-size: 14px;&quot; face=&quot;Verdana&quot;&gt;Comic Book Collecting&lt;/font&gt;" style="text;strokeColor=none;align=center;fillColor=none;html=1;verticalAlign=middle;whiteSpace=wrap;rounded=0;" vertex="1" parent="Zy4aOvu0js69eLm8PPWO-1">
          <mxGeometry x="360" y="160" width="90" height="50" as="geometry" />
        </mxCell>
        <mxCell id="Zy4aOvu0js69eLm8PPWO-12" value="&lt;font style=&quot;font-size: 14px;&quot; face=&quot;Verdana&quot;&gt;Gaming&lt;/font&gt;" style="text;strokeColor=none;align=center;fillColor=none;html=1;verticalAlign=middle;whiteSpace=wrap;rounded=0;" vertex="1" parent="Zy4aOvu0js69eLm8PPWO-1">
          <mxGeometry x="690" y="165" width="70" height="30" as="geometry" />
        </mxCell>
        <mxCell id="Zy4aOvu0js69eLm8PPWO-14" value="&lt;font style=&quot;font-size: 24px;&quot;&gt;Writing&lt;/font&gt;" style="text;strokeColor=none;align=center;fillColor=none;html=1;verticalAlign=middle;whiteSpace=wrap;rounded=0;" vertex="1" parent="Zy4aOvu0js69eLm8PPWO-1">
          <mxGeometry x="530" y="220" width="80" height="50" as="geometry" />
        </mxCell>
        <mxCell id="RTPmF_sTouclVD4SNYOM-0" value="" style="verticalLabelPosition=bottom;shadow=0;dashed=0;align=center;html=1;verticalAlign=top;strokeWidth=1;shape=mxgraph.mockup.graphics.simpleIcon;strokeColor=#999999;rounded=0;labelBackgroundColor=none;fontFamily=Verdana;fontSize=14;fontColor=#000000;comic=1;" vertex="1" parent="Zy4aOvu0js69eLm8PPWO-1">
          <mxGeometry x="385" y="280" width="330" height="220" as="geometry" />
        </mxCell>
        <mxCell id="RTPmF_sTouclVD4SNYOM-1" value="" style="verticalLabelPosition=bottom;shadow=0;dashed=0;align=center;html=1;verticalAlign=top;strokeWidth=1;shape=mxgraph.mockup.graphics.simpleIcon;strokeColor=#999999;rounded=0;labelBackgroundColor=none;fontFamily=Verdana;fontSize=14;fontColor=#000000;comic=1;" vertex="1" parent="Zy4aOvu0js69eLm8PPWO-1">
          <mxGeometry x="740" y="280" width="330" height="220" as="geometry" />
        </mxCell>
        <mxCell id="RTPmF_sTouclVD4SNYOM-2" value="Lorem ipsum dolor sit amet, consectetur adipisicing elit, sed do eiusmod tempor incididunt ut labore et dolore magna aliqua. Ut enim ad minim veniam, quis nostrud exercitation ullamco laboris nisi ut aliquip ex ea commodo consequat. Duis aute irure dolor in reprehenderit in voluptate velit esse cillum dolore eu fugiat nulla pariatur. Excepteur sint occaecat cupidatat non proident, sunt in culpa qui officia deserunt mollit anim id est laborum.&lt;br&gt;Sed ut perspiciatis unde omnis iste natus error sit voluptatem accusantium doloremque laudantium, totam rem aperiam, eaque ipsa quae ab illo inventore veritatis et quasi architecto beatae vitae dicta sunt explicabo. Nemo enim ipsam voluptatem quia voluptas sit aspernatur aut odit aut fugit, sed quia consequuntur magni dolores eos qui ratione voluptatem sequi nesciunt. Neque porro quisquam est, qui dolorem ipsum quia dolor sit amet, consectetur, adipisci velit, sed quia non numquam eius modi tempora incidunt ut&amp;nbsp;" style="text;spacingTop=-5;whiteSpace=wrap;html=1;align=left;fontSize=12;fontFamily=Helvetica;fillColor=none;strokeColor=none;" vertex="1" parent="Zy4aOvu0js69eLm8PPWO-1">
          <mxGeometry x="30" y="520" width="330" height="250" as="geometry" />
        </mxCell>
        <mxCell id="RTPmF_sTouclVD4SNYOM-3" value="Lorem ipsum dolor sit amet, consectetur adipisicing elit, sed do eiusmod tempor incididunt ut labore et dolore magna aliqua. Ut enim ad minim veniam, quis nostrud exercitation ullamco laboris nisi ut aliquip ex ea commodo consequat. Duis aute irure dolor in reprehenderit in voluptate velit esse cillum dolore eu fugiat nulla pariatur. Excepteur sint occaecat cupidatat non proident, sunt in culpa qui officia deserunt mollit anim id est laborum.&lt;br&gt;Sed ut perspiciatis unde omnis iste natus error sit voluptatem accusantium doloremque laudantium, totam rem aperiam, eaque ipsa quae ab illo inventore veritatis et quasi architecto beatae vitae dicta sunt explicabo. Nemo enim ipsam voluptatem quia voluptas sit aspernatur aut odit aut fugit, sed quia consequuntur magni dolores eos qui ratione voluptatem sequi nesciunt. Neque porro quisquam est, qui dolorem ipsum quia dolor sit amet, consectetur, adipisci velit, sed quia non numquam eius modi tempora incidunt ut&amp;nbsp;" style="text;spacingTop=-5;whiteSpace=wrap;html=1;align=left;fontSize=12;fontFamily=Helvetica;fillColor=none;strokeColor=none;" vertex="1" parent="Zy4aOvu0js69eLm8PPWO-1">
          <mxGeometry x="740" y="520" width="330" height="250" as="geometry" />
        </mxCell>
        <mxCell id="RTPmF_sTouclVD4SNYOM-4" value="Lorem ipsum dolor sit amet, consectetur adipisicing elit, sed do eiusmod tempor incididunt ut labore et dolore magna aliqua. Ut enim ad minim veniam, quis nostrud exercitation ullamco laboris nisi ut aliquip ex ea commodo consequat. Duis aute irure dolor in reprehenderit in voluptate velit esse cillum dolore eu fugiat nulla pariatur. Excepteur sint occaecat cupidatat non proident, sunt in culpa qui officia deserunt mollit anim id est laborum.&lt;br&gt;Sed ut perspiciatis unde omnis iste natus error sit voluptatem accusantium doloremque laudantium, totam rem aperiam, eaque ipsa quae ab illo inventore veritatis et quasi architecto beatae vitae dicta sunt explicabo. Nemo enim ipsam voluptatem quia voluptas sit aspernatur aut odit aut fugit, sed quia consequuntur magni dolores eos qui ratione voluptatem sequi nesciunt. Neque porro quisquam est, qui dolorem ipsum quia dolor sit amet, consectetur, adipisci velit, sed quia non numquam eius modi tempora incidunt ut&amp;nbsp;" style="text;spacingTop=-5;whiteSpace=wrap;html=1;align=left;fontSize=12;fontFamily=Helvetica;fillColor=none;strokeColor=none;" vertex="1" parent="Zy4aOvu0js69eLm8PPWO-1">
          <mxGeometry x="385" y="520" width="330" height="250" as="geometry" />
        </mxCell>
      </root>
    </mxGraphModel>
  </diagram>
  <diagram name="Gaming" id="mzf1WFtaYZ7Ea3EeUUmz">
    <mxGraphModel dx="1647" dy="839" grid="1" gridSize="10" guides="1" tooltips="1" connect="1" arrows="1" fold="1" page="1" pageScale="1" pageWidth="1100" pageHeight="850" background="none" math="0" shadow="0">
      <root>
        <mxCell id="30la5d3YRaMY5dgms59u-0" />
        <mxCell id="30la5d3YRaMY5dgms59u-1" parent="30la5d3YRaMY5dgms59u-0" />
        <mxCell id="30la5d3YRaMY5dgms59u-2" value="" style="whiteSpace=wrap;html=1;rounded=0;shadow=0;labelBackgroundColor=none;strokeColor=#000000;strokeWidth=1;fillColor=none;fontFamily=Verdana;fontSize=12;fontColor=#000000;align=center;comic=1;" vertex="1" parent="30la5d3YRaMY5dgms59u-1">
          <mxGeometry x="20" y="20" width="1060" height="820" as="geometry" />
        </mxCell>
        <mxCell id="30la5d3YRaMY5dgms59u-3" value="" style="line;strokeWidth=1;html=1;rounded=0;shadow=0;labelBackgroundColor=none;fillColor=none;fontFamily=Verdana;fontSize=14;fontColor=#000000;align=center;comic=1;" vertex="1" parent="30la5d3YRaMY5dgms59u-1">
          <mxGeometry x="20" y="140" width="1060" height="10" as="geometry" />
        </mxCell>
        <mxCell id="30la5d3YRaMY5dgms59u-4" value="" style="whiteSpace=wrap;html=1;rounded=0;shadow=0;labelBackgroundColor=none;strokeWidth=1;fillColor=none;fontFamily=Verdana;fontSize=12;align=center;comic=1;" vertex="1" parent="30la5d3YRaMY5dgms59u-1">
          <mxGeometry x="210" y="160" width="760" height="50" as="geometry" />
        </mxCell>
        <mxCell id="30la5d3YRaMY5dgms59u-5" value="Home" style="text;html=1;points=[];align=left;verticalAlign=top;spacingTop=-4;fontSize=14;fontFamily=Verdana" vertex="1" parent="30la5d3YRaMY5dgms59u-1">
          <mxGeometry x="220" y="170" width="50" height="20" as="geometry" />
        </mxCell>
        <mxCell id="30la5d3YRaMY5dgms59u-6" value="Writing" style="text;html=1;points=[];align=left;verticalAlign=top;spacingTop=-4;fontSize=14;fontFamily=Verdana" vertex="1" parent="30la5d3YRaMY5dgms59u-1">
          <mxGeometry x="540" y="170" width="60" height="20" as="geometry" />
        </mxCell>
        <mxCell id="30la5d3YRaMY5dgms59u-7" value="Martial Arts&lt;div&gt;&lt;br&gt;&lt;/div&gt;" style="text;html=1;points=[];align=left;verticalAlign=top;spacingTop=-4;fontSize=14;fontFamily=Verdana" vertex="1" parent="30la5d3YRaMY5dgms59u-1">
          <mxGeometry x="840" y="170" width="90" height="20" as="geometry" />
        </mxCell>
        <mxCell id="30la5d3YRaMY5dgms59u-10" value="&lt;font style=&quot;font-size: 72px;&quot;&gt;Brian Waldschmidt&lt;/font&gt;" style="text;strokeColor=none;align=center;fillColor=none;html=1;verticalAlign=middle;whiteSpace=wrap;rounded=0;" vertex="1" parent="30la5d3YRaMY5dgms59u-1">
          <mxGeometry x="230" y="20" width="710" height="120" as="geometry" />
        </mxCell>
        <mxCell id="30la5d3YRaMY5dgms59u-11" value="&lt;font style=&quot;font-size: 14px;&quot; face=&quot;Verdana&quot;&gt;Comic Book Collecting&lt;/font&gt;" style="text;strokeColor=none;align=center;fillColor=none;html=1;verticalAlign=middle;whiteSpace=wrap;rounded=0;" vertex="1" parent="30la5d3YRaMY5dgms59u-1">
          <mxGeometry x="360" y="160" width="90" height="50" as="geometry" />
        </mxCell>
        <mxCell id="30la5d3YRaMY5dgms59u-12" value="&lt;font style=&quot;font-size: 14px;&quot; face=&quot;Verdana&quot;&gt;&lt;b&gt;Gaming&lt;/b&gt;&lt;/font&gt;" style="text;strokeColor=none;align=center;fillColor=none;html=1;verticalAlign=middle;whiteSpace=wrap;rounded=0;" vertex="1" parent="30la5d3YRaMY5dgms59u-1">
          <mxGeometry x="690" y="165" width="70" height="30" as="geometry" />
        </mxCell>
        <mxCell id="30la5d3YRaMY5dgms59u-14" value="&lt;font style=&quot;font-size: 24px;&quot;&gt;Gaming&lt;/font&gt;" style="text;strokeColor=none;align=center;fillColor=none;html=1;verticalAlign=middle;whiteSpace=wrap;rounded=0;" vertex="1" parent="30la5d3YRaMY5dgms59u-1">
          <mxGeometry x="550" y="215" width="100" height="50" as="geometry" />
        </mxCell>
        <mxCell id="XbV6MxIv0JHqeco-IGyd-2" value="" style="verticalLabelPosition=bottom;shadow=0;dashed=0;align=center;html=1;verticalAlign=top;strokeWidth=1;shape=mxgraph.mockup.graphics.simpleIcon;strokeColor=#999999;rounded=0;labelBackgroundColor=none;fontFamily=Verdana;fontSize=14;fontColor=#000000;comic=1;" vertex="1" parent="30la5d3YRaMY5dgms59u-1">
          <mxGeometry x="635" y="265" width="335" height="185" as="geometry" />
        </mxCell>
        <mxCell id="uQ2YYndqDO_hj3KzRQlj-0" value="" style="verticalLabelPosition=bottom;shadow=0;dashed=0;align=center;html=1;verticalAlign=top;strokeWidth=1;shape=mxgraph.mockup.graphics.simpleIcon;strokeColor=#999999;rounded=0;labelBackgroundColor=none;fontFamily=Verdana;fontSize=14;fontColor=#000000;comic=1;" vertex="1" parent="30la5d3YRaMY5dgms59u-1">
          <mxGeometry x="635" y="645" width="335" height="185" as="geometry" />
        </mxCell>
        <mxCell id="uQ2YYndqDO_hj3KzRQlj-1" value="" style="verticalLabelPosition=bottom;shadow=0;dashed=0;align=center;html=1;verticalAlign=top;strokeWidth=1;shape=mxgraph.mockup.graphics.simpleIcon;strokeColor=#999999;rounded=0;labelBackgroundColor=none;fontFamily=Verdana;fontSize=14;fontColor=#000000;comic=1;" vertex="1" parent="30la5d3YRaMY5dgms59u-1">
          <mxGeometry x="215" y="450" width="335" height="185" as="geometry" />
        </mxCell>
        <mxCell id="1EqRp_IMyypwSUhW_8Ue-0" value="Lorem ipsum dolor sit amet, consectetur adipisicing elit, sed do eiusmod tempor incididunt ut labore et dolore magna aliqua. Ut enim ad minim veniam, quis nostrud exercitation ullamco laboris nisi ut aliquip ex ea commodo consequat. Duis aute irure dolor in reprehenderit in voluptate velit esse cillum dolore eu fugiat nulla pariatur. Excepteur sint occaecat cupidatat non proident, sunt in culpa qui officia deserunt mollit anim id est laborum.&lt;br&gt;Sed ut perspiciatis unde omnis iste natus error sit voluptatem accusantium doloremque laudantium, totam rem aperiam, eaque ipsa quae ab illo inventore veritatis et quasi architecto beatae vitae dicta sunt explicabo. Nemo enim ipsam voluptatem quia voluptas sit aspernatur aut odit aut fugit, sed quia consequuntur magni dolores eos qui ratione voluptatem sequi&amp;nbsp;" style="text;spacingTop=-5;whiteSpace=wrap;html=1;align=left;fontSize=12;fontFamily=Helvetica;fillColor=none;strokeColor=none;" vertex="1" parent="30la5d3YRaMY5dgms59u-1">
          <mxGeometry x="210" y="650" width="405" height="175" as="geometry" />
        </mxCell>
        <mxCell id="1EqRp_IMyypwSUhW_8Ue-1" value="Lorem ipsum dolor sit amet, consectetur adipisicing elit, sed do eiusmod tempor incididunt ut labore et dolore magna aliqua. Ut enim ad minim veniam, quis nostrud exercitation ullamco laboris nisi ut aliquip ex ea commodo consequat. Duis aute irure dolor in reprehenderit in voluptate velit esse cillum dolore eu fugiat nulla pariatur. Excepteur sint occaecat cupidatat non proident, sunt in culpa qui officia deserunt mollit anim id est laborum.&lt;br&gt;Sed ut perspiciatis unde omnis iste natus error sit voluptatem accusantium doloremque laudantium, totam rem aperiam, eaque ipsa quae ab illo inventore veritatis et quasi architecto beatae vitae dicta sunt explicabo. Nemo enim ipsam voluptatem quia voluptas sit aspernatur aut odit aut fugit, sed quia consequuntur magni dolores eos qui ratione voluptatem sequi&amp;nbsp;" style="text;spacingTop=-5;whiteSpace=wrap;html=1;align=left;fontSize=12;fontFamily=Helvetica;fillColor=none;strokeColor=none;" vertex="1" parent="30la5d3YRaMY5dgms59u-1">
          <mxGeometry x="565" y="455" width="405" height="175" as="geometry" />
        </mxCell>
        <mxCell id="1EqRp_IMyypwSUhW_8Ue-2" value="Lorem ipsum dolor sit amet, consectetur adipisicing elit, sed do eiusmod tempor incididunt ut labore et dolore magna aliqua. Ut enim ad minim veniam, quis nostrud exercitation ullamco laboris nisi ut aliquip ex ea commodo consequat. Duis aute irure dolor in reprehenderit in voluptate velit esse cillum dolore eu fugiat nulla pariatur. Excepteur sint occaecat cupidatat non proident, sunt in culpa qui officia deserunt mollit anim id est laborum.&lt;br&gt;Sed ut perspiciatis unde omnis iste natus error sit voluptatem accusantium doloremque laudantium, totam rem aperiam, eaque ipsa quae ab illo inventore veritatis et quasi architecto beatae vitae dicta sunt explicabo. Nemo enim ipsam voluptatem quia voluptas sit aspernatur aut odit aut fugit, sed quia consequuntur magni dolores eos qui ratione voluptatem sequi&amp;nbsp;" style="text;spacingTop=-5;whiteSpace=wrap;html=1;align=left;fontSize=12;fontFamily=Helvetica;fillColor=none;strokeColor=none;" vertex="1" parent="30la5d3YRaMY5dgms59u-1">
          <mxGeometry x="210" y="265" width="405" height="175" as="geometry" />
        </mxCell>
      </root>
    </mxGraphModel>
  </diagram>
  <diagram name="Martial Arts" id="KwL4qcA51uWH2LfENtfZ">
    <mxGraphModel dx="1647" dy="839" grid="1" gridSize="10" guides="1" tooltips="1" connect="1" arrows="1" fold="1" page="1" pageScale="1" pageWidth="1100" pageHeight="850" background="none" math="0" shadow="0">
      <root>
        <mxCell id="U_lIO2AQNxT96NwTTF7R-0" />
        <mxCell id="U_lIO2AQNxT96NwTTF7R-1" parent="U_lIO2AQNxT96NwTTF7R-0" />
        <mxCell id="U_lIO2AQNxT96NwTTF7R-2" value="" style="whiteSpace=wrap;html=1;rounded=0;shadow=0;labelBackgroundColor=none;strokeColor=#000000;strokeWidth=1;fillColor=none;fontFamily=Verdana;fontSize=12;fontColor=#000000;align=center;comic=1;" vertex="1" parent="U_lIO2AQNxT96NwTTF7R-1">
          <mxGeometry x="20" y="20" width="1060" height="820" as="geometry" />
        </mxCell>
        <mxCell id="U_lIO2AQNxT96NwTTF7R-3" value="" style="line;strokeWidth=1;html=1;rounded=0;shadow=0;labelBackgroundColor=none;fillColor=none;fontFamily=Verdana;fontSize=14;fontColor=#000000;align=center;comic=1;" vertex="1" parent="U_lIO2AQNxT96NwTTF7R-1">
          <mxGeometry x="20" y="140" width="1060" height="10" as="geometry" />
        </mxCell>
        <mxCell id="U_lIO2AQNxT96NwTTF7R-4" value="" style="whiteSpace=wrap;html=1;rounded=0;shadow=0;labelBackgroundColor=none;strokeWidth=1;fillColor=none;fontFamily=Verdana;fontSize=12;align=center;comic=1;" vertex="1" parent="U_lIO2AQNxT96NwTTF7R-1">
          <mxGeometry x="210" y="160" width="760" height="50" as="geometry" />
        </mxCell>
        <mxCell id="U_lIO2AQNxT96NwTTF7R-5" value="Home" style="text;html=1;points=[];align=left;verticalAlign=top;spacingTop=-4;fontSize=14;fontFamily=Verdana" vertex="1" parent="U_lIO2AQNxT96NwTTF7R-1">
          <mxGeometry x="220" y="170" width="50" height="20" as="geometry" />
        </mxCell>
        <mxCell id="U_lIO2AQNxT96NwTTF7R-6" value="Writing" style="text;html=1;points=[];align=left;verticalAlign=top;spacingTop=-4;fontSize=14;fontFamily=Verdana" vertex="1" parent="U_lIO2AQNxT96NwTTF7R-1">
          <mxGeometry x="540" y="170" width="60" height="20" as="geometry" />
        </mxCell>
        <mxCell id="U_lIO2AQNxT96NwTTF7R-7" value="&lt;b&gt;Martial Arts&lt;/b&gt;&lt;div&gt;&lt;br&gt;&lt;/div&gt;" style="text;html=1;points=[];align=left;verticalAlign=top;spacingTop=-4;fontSize=14;fontFamily=Verdana" vertex="1" parent="U_lIO2AQNxT96NwTTF7R-1">
          <mxGeometry x="840" y="170" width="90" height="20" as="geometry" />
        </mxCell>
        <mxCell id="U_lIO2AQNxT96NwTTF7R-10" value="&lt;font style=&quot;font-size: 72px;&quot;&gt;Brian Waldschmidt&lt;/font&gt;" style="text;strokeColor=none;align=center;fillColor=none;html=1;verticalAlign=middle;whiteSpace=wrap;rounded=0;" vertex="1" parent="U_lIO2AQNxT96NwTTF7R-1">
          <mxGeometry x="230" y="20" width="710" height="120" as="geometry" />
        </mxCell>
        <mxCell id="U_lIO2AQNxT96NwTTF7R-11" value="&lt;font style=&quot;font-size: 14px;&quot; face=&quot;Verdana&quot;&gt;Comic Book Collecting&lt;/font&gt;" style="text;strokeColor=none;align=center;fillColor=none;html=1;verticalAlign=middle;whiteSpace=wrap;rounded=0;" vertex="1" parent="U_lIO2AQNxT96NwTTF7R-1">
          <mxGeometry x="360" y="160" width="90" height="50" as="geometry" />
        </mxCell>
        <mxCell id="U_lIO2AQNxT96NwTTF7R-12" value="&lt;font style=&quot;font-size: 14px;&quot; face=&quot;Verdana&quot;&gt;Gaming&lt;/font&gt;" style="text;strokeColor=none;align=center;fillColor=none;html=1;verticalAlign=middle;whiteSpace=wrap;rounded=0;" vertex="1" parent="U_lIO2AQNxT96NwTTF7R-1">
          <mxGeometry x="690" y="165" width="70" height="30" as="geometry" />
        </mxCell>
        <mxCell id="U_lIO2AQNxT96NwTTF7R-14" value="&lt;font style=&quot;font-size: 24px;&quot;&gt;Martial Arts&lt;/font&gt;" style="text;strokeColor=none;align=center;fillColor=none;html=1;verticalAlign=middle;whiteSpace=wrap;rounded=0;" vertex="1" parent="U_lIO2AQNxT96NwTTF7R-1">
          <mxGeometry x="525" y="220" width="130" height="40" as="geometry" />
        </mxCell>
        <mxCell id="3GkOWZaM4VKSiLjn7R-g-0" value="Lorem ipsum dolor sit amet, consectetur adipisicing elit, sed do eiusmod tempor incididunt ut labore et dolore magna aliqua. Ut enim ad minim veniam, quis nostrud exercitation ullamco laboris nisi ut aliquip ex ea commodo consequat. Duis aute irure dolor in reprehenderit in voluptate velit esse cillum dolore eu fugiat nulla pariatur. Excepteur sint occaecat cupidatat non proident, sunt in culpa qui officia deserunt mollit anim id est laborum.&lt;br&gt;Sed ut perspiciatis unde omnis iste natus error sit voluptatem accusantium doloremque laudantium, totam rem aperiam, eaque ipsa quae ab illo inventore veritatis et quasi architecto beatae vitae dicta sunt explicabo. Nemo enim ipsam voluptatem quia voluptas sit aspernatur aut odit aut fugit, sed quia consequuntur magni dolores eos qui ratione voluptatem sequi&amp;nbsp;" style="text;spacingTop=-5;whiteSpace=wrap;html=1;align=left;fontSize=12;fontFamily=Helvetica;fillColor=none;strokeColor=none;" vertex="1" parent="U_lIO2AQNxT96NwTTF7R-1">
          <mxGeometry x="560" y="650" width="405" height="175" as="geometry" />
        </mxCell>
        <mxCell id="3GkOWZaM4VKSiLjn7R-g-1" value="Lorem ipsum dolor sit amet, consectetur adipisicing elit, sed do eiusmod tempor incididunt ut labore et dolore magna aliqua. Ut enim ad minim veniam, quis nostrud exercitation ullamco laboris nisi ut aliquip ex ea commodo consequat. Duis aute irure dolor in reprehenderit in voluptate velit esse cillum dolore eu fugiat nulla pariatur. Excepteur sint occaecat cupidatat non proident, sunt in culpa qui officia deserunt mollit anim id est laborum.&lt;br&gt;Sed ut perspiciatis unde omnis iste natus error sit voluptatem accusantium doloremque laudantium, totam rem aperiam, eaque ipsa quae ab illo inventore veritatis et quasi architecto beatae vitae dicta sunt explicabo. Nemo enim ipsam voluptatem quia voluptas sit aspernatur aut odit aut fugit, sed quia consequuntur magni dolores eos qui ratione voluptatem sequi&amp;nbsp;" style="text;spacingTop=-5;whiteSpace=wrap;html=1;align=left;fontSize=12;fontFamily=Helvetica;fillColor=none;strokeColor=none;" vertex="1" parent="U_lIO2AQNxT96NwTTF7R-1">
          <mxGeometry x="560" y="460" width="405" height="175" as="geometry" />
        </mxCell>
        <mxCell id="3GkOWZaM4VKSiLjn7R-g-2" value="Lorem ipsum dolor sit amet, consectetur adipisicing elit, sed do eiusmod tempor incididunt ut labore et dolore magna aliqua. Ut enim ad minim veniam, quis nostrud exercitation ullamco laboris nisi ut aliquip ex ea commodo consequat. Duis aute irure dolor in reprehenderit in voluptate velit esse cillum dolore eu fugiat nulla pariatur. Excepteur sint occaecat cupidatat non proident, sunt in culpa qui officia deserunt mollit anim id est laborum.&lt;br&gt;Sed ut perspiciatis unde omnis iste natus error sit voluptatem accusantium doloremque laudantium, totam rem aperiam, eaque ipsa quae ab illo inventore veritatis et quasi architecto beatae vitae dicta sunt explicabo. Nemo enim ipsam voluptatem quia voluptas sit aspernatur aut odit aut fugit, sed quia consequuntur magni dolores eos qui ratione voluptatem sequi&amp;nbsp;" style="text;spacingTop=-5;whiteSpace=wrap;html=1;align=left;fontSize=12;fontFamily=Helvetica;fillColor=none;strokeColor=none;" vertex="1" parent="U_lIO2AQNxT96NwTTF7R-1">
          <mxGeometry x="565" y="270" width="405" height="175" as="geometry" />
        </mxCell>
        <mxCell id="rRT2nAYfK5UNqzdhA3AU-0" value="" style="verticalLabelPosition=bottom;shadow=0;dashed=0;align=center;html=1;verticalAlign=top;strokeWidth=1;shape=mxgraph.mockup.graphics.simpleIcon;strokeColor=#999999;rounded=0;labelBackgroundColor=none;fontFamily=Verdana;fontSize=14;fontColor=#000000;comic=1;" vertex="1" parent="U_lIO2AQNxT96NwTTF7R-1">
          <mxGeometry x="210" y="455" width="335" height="185" as="geometry" />
        </mxCell>
        <mxCell id="rRT2nAYfK5UNqzdhA3AU-1" value="" style="verticalLabelPosition=bottom;shadow=0;dashed=0;align=center;html=1;verticalAlign=top;strokeWidth=1;shape=mxgraph.mockup.graphics.simpleIcon;strokeColor=#999999;rounded=0;labelBackgroundColor=none;fontFamily=Verdana;fontSize=14;fontColor=#000000;comic=1;" vertex="1" parent="U_lIO2AQNxT96NwTTF7R-1">
          <mxGeometry x="210" y="645" width="335" height="185" as="geometry" />
        </mxCell>
        <mxCell id="rRT2nAYfK5UNqzdhA3AU-2" value="" style="verticalLabelPosition=bottom;shadow=0;dashed=0;align=center;html=1;verticalAlign=top;strokeWidth=1;shape=mxgraph.mockup.graphics.simpleIcon;strokeColor=#999999;rounded=0;labelBackgroundColor=none;fontFamily=Verdana;fontSize=14;fontColor=#000000;comic=1;" vertex="1" parent="U_lIO2AQNxT96NwTTF7R-1">
          <mxGeometry x="210" y="265" width="335" height="185" as="geometry" />
        </mxCell>
      </root>
    </mxGraphModel>
  </diagram>
</mxfile>
